<svg width="250" height="28" viewBox="0 0 250 28" fill="none" xmlns="http://www.w3.org/2000/svg">
<path d="M0.221875 0.399998H5.69388L15.5819 9.712V16.96L6.26988 8.176V28H0.221875V0.399998ZM33.2939 0.399998H27.8699L17.9339 9.712V16.96L27.2459 8.176V28H33.2939V0.399998ZM41.9181 3.712L47.5341 0.399998H57.4701V5.824H47.9661V22.384H57.2781V28H47.5341L41.9181 24.736V3.712ZM74.9901 3.712L69.5661 0.399998H59.6301V5.824H68.9421V22.384H59.6301V28H69.5661L74.9901 24.736V3.712ZM83.6125 0.399998H89.0845L98.9725 9.712V16.96L89.6605 7.984V28H83.6125V0.399998ZM110.637 20.224V0.399998H116.685V28H111.021L101.133 18.496V11.488L110.637 20.224ZM125.309 0.399998H131.357V28H125.309V0.399998ZM169.715 5.824H155.891V28H149.267V5.824H136.643V0.399998H169.715V5.824ZM174.434 3.712L180.05 0.399998H189.986V5.824H180.482V22.384H189.794V28H180.05L174.434 24.736V3.712ZM207.506 3.712L202.082 0.399998H192.146V5.824H201.458V22.384H192.146V28H202.082L207.506 24.736V3.712ZM216.128 0.399998H231.488V6.064H222.176V11.488H231.488V17.104H222.176V28H216.128V0.399998ZM249.2 28V16.576L244.688 14.224L249.2 12.064V3.712L243.536 0.399998H233.648V6.064H243.152V11.488H233.648V17.104H243.152V28H249.2Z" fill="#FCF9F9"/>
</svg>
